# xmcd
#
# Track frame offsets: 
#        150
#        26572
#        47489
#        75659
#        98686
#        114911
#        131475
#        151833
#        169151
#        188367
#        213929
#        243531
#        258030
#        271970
#
# Disc length: 3808 seconds
#
# Revision: 4
# Processed by: cddbd v1.5.2PL0 Copyright (c) Steve Scherf et al.
# Submitted via: ExactAudioCopy v1.3
#
DISCID=a40ede0e
DTITLE=Ella Fitzgerald and Louis Armstrong - In The Jazz Mood CD2
DYEAR=2008
DGENRE=Jazz
TTITLE0=Cheek To Cheek
TTITLE1=They Can't Take That Away From Me
TTITLE2=Isn't This A Lely Day
TTITLE3=Tenderly
TTITLE4=Star Fell On Alabama
TTITLE5=Moonlight In Vermont
TTITLE6=A Foggy Day
TTITLE7=Can't We Be Friend?
TTITLE8=Under A Blanket Of Blue
TTITLE9=The Nearness Of You
TTITLE10=April In Paris
TTITLE11=Can Anyone Explain?
TTITLE12=Dream A Little Dream
TTITLE13=My Sweet Hunk O'Trash
EXTD=YEAR: 2009
EXTT0=
EXTT1=
EXTT2=
EXTT3=
EXTT4=
EXTT5=
EXTT6=
EXTT7=
EXTT8=
EXTT9=
EXTT10=
EXTT11=
EXTT12=
EXTT13=
PLAYORDER=
